<?xml version="1.0" encoding="UTF-8"?> <svg xmlns:inkscape="http://www.inkscape.org/namespaces/inkscape" xmlns:sodipodi="http://sodipodi.sourceforge.net/DTD/sodipodi-0.dtd" xmlns="http://www.w3.org/2000/svg" xmlns:svg="http://www.w3.org/2000/svg" version="1.1" id="svg2" sodipodi:docname="hel logotype.ai" viewBox="0 0 305.55 100"><defs id="defs6"><clipPath id="clipPath16"><path d="M 0,144 H 252 V 0 H 0 Z" id="path14"></path></clipPath></defs><g id="g8" inkscape:groupmode="layer" inkscape:label="hel logotype" transform="matrix(1.3333333,0,0,-1.3333333,0,142)"><g id="g10"><g id="g12" clip-path="url(#clipPath16)"><g id="g18" transform="translate(129.139,96.7155)"><path d="m 0,0 c 0.75,0 1.65,0.3 2.25,0.9 0.6,0.6 0.9,1.35 0.9,2.1 0,0.9 -0.3,1.8 -0.9,2.4 C 1.65,6 0.9,6.3 0,6.3 -0.9,6.3 -1.65,6 -2.25,5.4 -2.85,4.8 -3.15,4.05 -3.15,3.15 -3.15,2.25 -2.85,1.5 -2.25,0.9 -1.65,0.3 -0.9,0 0,0 m 2.85,-25.8 v 21.9 h -9 v -0.15 l 3.45,-2.7 c 0.3,-0.3 0.6,-0.75 0.6,-1.2 v -18 c 0,-0.45 -0.15,-0.9 -0.6,-1.2 l -3.45,-1.95 h 13.2 l -3.6,2.25 c -0.45,0.15 -0.6,0.6 -0.6,1.05 m -13.2,9.75 c 0.15,2.55 -0.45,4.95 -1.5,7.35 -0.75,1.65 -2.4,2.7 -4.2,2.85 -2.25,0 -4.05,-1.35 -5.55,-4.05 v -14.85 c 1.2,-1.65 3,-2.55 5.1,-2.4 1.95,0 3.75,1.05 4.65,2.85 1.2,2.4 1.8,5.25 1.5,8.25 m 5.4,0.3 c 0.15,-3.6 -0.75,-7.05 -2.7,-10.05 -1.65,-2.4 -4.2,-3.75 -7.2,-3.75 -2.85,-0.15 -5.7,1.35 -6.9,4.05 v -12 c 0,-0.45 0.3,-0.9 0.75,-1.05 l 4.65,-2.4 v -0.15 h -14.4 v 0.15 l 3.6,2.1 c 0.45,0.3 0.6,0.75 0.6,1.2 v 30 c 0,0.45 -0.15,0.9 -0.6,1.2 l -3.6,2.55 h 9 v -5.7 c 0.6,1.8 1.8,3.45 3.3,4.65 1.35,1.05 2.85,1.5 4.5,1.5 2.55,0.15 5.1,-1.2 6.45,-3.45 1.8,-2.55 2.7,-5.7 2.55,-8.85 m -29.4,-0.3 c 0.15,2.55 -0.45,4.95 -1.5,7.35 -0.75,1.65 -2.4,2.7 -4.2,2.85 -2.25,0 -4.05,-1.35 -5.55,-4.05 v -14.85 c 1.2,-1.65 3,-2.55 5.1,-2.4 1.95,0 3.75,1.05 4.65,2.85 1.2,2.4 1.8,5.25 1.5,8.25 m 5.4,0.3 c 0.15,-3.6 -0.75,-7.05 -2.7,-10.05 -1.65,-2.4 -4.2,-3.75 -7.2,-3.75 -2.85,-0.15 -5.7,1.35 -6.9,4.05 v -12 c 0,-0.45 0.3,-0.9 0.75,-1.05 l 4.65,-2.4 v -0.15 h -14.4 v 0.15 l 3.6,2.1 c 0.45,0.3 0.6,0.75 0.6,1.2 v 30 c 0,0.45 -0.15,0.9 -0.6,1.2 l -3.6,2.55 h 9 v -5.7 c 0.6,1.8 1.8,3.45 3.3,4.65 1.35,1.05 2.85,1.5 4.5,1.5 2.55,0.15 5.1,-1.2 6.45,-3.45 1.8,-2.55 2.7,-5.7 2.55,-8.85 m -31.8,-1.35 c -0.9,0.3 -1.95,0.45 -3,0.6 -1.5,0.15 -3.15,-0.45 -4.2,-1.65 -1.05,-1.05 -1.5,-2.55 -1.5,-3.9 0,-1.2 0.3,-2.4 1.05,-3.3 0.75,-0.75 1.8,-1.2 2.85,-1.2 1.95,0 3.75,1.2 4.65,3 v 0.15 z m 6.6,-11.7 c -0.75,-0.6 -1.65,-0.9 -2.55,-0.75 -1.2,0 -2.25,0.45 -3,1.35 -0.9,1.2 -1.2,2.7 -1.2,4.05 -0.45,-1.65 -1.35,-3 -2.7,-4.05 -2.7,-2.1 -6.6,-1.95 -9.15,0.3 -1.35,1.35 -2.1,3.15 -1.95,4.95 -0.15,2.1 0.9,4.2 2.55,5.55 1.65,1.35 3.75,2.1 5.85,1.95 1.95,0 3.9,-0.45 5.4,-1.65 l 0.15,5.55 v 0.45 c 0.15,1.8 -0.45,3.45 -1.35,4.95 -1.05,1.2 -2.55,1.95 -4.2,1.8 -0.45,0 -0.9,0 -1.2,-0.15 -0.3,-0.15 -0.45,-0.3 -0.45,-0.6 L -71.1,-12 h -0.15 l -2.25,6.9 c 2.7,1.05 5.7,1.65 8.7,1.65 3,0 5.25,-0.75 6.6,-1.95 1.5,-1.65 2.25,-4.5 2.25,-8.55 v -0.75 l -0.15,-8.4 c 0,-2.25 0.6,-3.45 1.8,-3.45 0.9,0 1.5,0.45 1.8,1.5 h 0.15 c 0,-0.6 -0.15,-1.05 -0.3,-1.65 -0.3,-0.9 -0.75,-1.5 -1.5,-2.1" style="fill:#ff7963;fill-opacity:1;fill-rule:nonzero;stroke:none" id="path20"></path></g><g id="g22" transform="translate(146.5249,69.7062)"><path d="m 0,0 c 1.802,0 3.485,1.173 5.05,3.519 v 14.484 c -1.429,2.074 -3.095,3.111 -4.998,3.111 -1.803,0 -3.29,-0.892 -4.463,-2.677 -1.173,-1.785 -1.76,-4.378 -1.76,-7.778 0,-3.502 0.595,-6.154 1.785,-7.956 C -3.196,0.901 -1.733,0 0,0 M 9.895,34.782 V 1.683 c 0,-0.476 0.186,-0.85 0.56,-1.122 l 3.468,-2.55 V -2.091 H 5.05 V 3.162 C 4.369,1.258 3.374,-0.162 2.065,-1.096 c -1.308,-0.936 -2.762,-1.403 -4.36,-1.403 -2.685,0 -4.87,1.173 -6.554,3.519 -1.682,2.346 -2.524,5.372 -2.524,9.078 0,3.944 0.944,7.106 2.831,9.486 1.887,2.38 4.224,3.57 7.013,3.57 3.092,0 5.286,-1.564 6.579,-4.692 v 11.985 c 0,0.544 -0.188,0.935 -0.562,1.173 l -3.467,2.04 v 0.102 z" style="fill:#ff7963;fill-opacity:1;fill-rule:nonzero;stroke:none" id="path24"></path></g><g id="g26" transform="translate(170.3423,92.0953)"><path d="m 0,0 c -1.666,0 -3.001,-0.808 -4.003,-2.422 -1.004,-1.616 -1.606,-3.834 -1.81,-6.656 H 4.692 v 0.102 C 4.692,-2.992 3.128,0 0,0 M 9.537,-9.945 H -5.865 v -1.428 c 0,-3.333 0.688,-5.934 2.066,-7.803 1.377,-1.87 3.153,-2.805 5.329,-2.805 3.705,0 6.408,2.091 8.11,6.273 l 0.101,-0.051 c -0.544,-3.027 -1.657,-5.304 -3.341,-6.834 -1.682,-1.53 -3.868,-2.295 -6.552,-2.295 -3.028,0 -5.552,1.062 -7.575,3.187 -2.023,2.125 -3.034,5.262 -3.034,9.41 0,2.312 0.323,4.343 0.969,6.095 0.646,1.75 1.513,3.111 2.602,4.079 1.086,0.97 2.243,1.692 3.467,2.168 1.224,0.476 2.482,0.714 3.774,0.714 2.652,0 4.913,-0.799 6.783,-2.397 1.87,-1.598 2.806,-3.927 2.806,-6.987 0,-0.34 -0.036,-0.782 -0.103,-1.326" style="fill:#ff7963;fill-opacity:1;fill-rule:nonzero;stroke:none" id="path28"></path></g><g id="g30" transform="translate(203.4917,82.6603)"><path d="m 0,0 c 0,-2.415 -0.034,-6.341 -0.102,-11.781 0,-0.51 0.205,-0.885 0.612,-1.122 l 3.469,-2.04 v -0.102 H -8.925 v 0.102 l 3.264,2.04 c 0.441,0.272 0.663,0.612 0.663,1.02 0,0.068 0.008,0.816 0.025,2.244 0.017,1.428 0.043,2.966 0.077,4.616 0.034,1.648 0.051,2.779 0.051,3.391 0,3.093 -0.357,5.346 -1.071,6.757 -0.714,1.411 -1.819,2.117 -3.314,2.117 -2.245,0 -4.03,-1.258 -5.356,-3.774 v -15.249 c 0,-0.476 0.204,-0.833 0.612,-1.071 l 3.417,-2.091 v -0.102 H -23.46 v 0.102 l 3.468,2.04 c 0.374,0.204 0.561,0.578 0.561,1.122 V 5.967 c 0,0.51 -0.187,0.901 -0.561,1.173 l -3.468,2.55 v 0.102 h 8.874 V 3.774 c 1.19,4.284 3.706,6.426 7.548,6.426 C -2.346,10.2 0,6.8 0,0" style="fill:#ff7963;fill-opacity:1;fill-rule:nonzero;stroke:none" id="path32"></path></g><g id="g34" transform="translate(213.7417,91.5343)"><path d="m 0,0 v -18.054 c 0,-1.122 0.255,-2.007 0.765,-2.652 0.51,-0.646 1.224,-0.969 2.142,-0.969 0.884,0 1.683,0.288 2.397,0.867 0.715,0.578 1.224,1.292 1.53,2.142 h 0.103 c -0.239,-1.632 -0.893,-2.983 -1.964,-4.054 -1.072,-1.072 -2.525,-1.607 -4.361,-1.607 -3.638,0 -5.457,1.921 -5.457,5.763 V 0 h -3.57 v 0.918 h 2.805 c 0.544,0 0.952,0.238 1.224,0.714 L -0.102,9.18 H 0 V 0.918 H 7.242 V 0 Z" style="fill:#ff7963;fill-opacity:1;fill-rule:nonzero;stroke:none" id="path36"></path></g><g id="g38" transform="translate(30.688,56.3016)"><path d="M 0,0 H 38.851" style="fill:none;stroke:#ff7963;stroke-width:1;stroke-linecap:round;stroke-linejoin:round;stroke-miterlimit:10;stroke-dasharray:none;stroke-opacity:1" id="path40"></path></g><g id="g42" transform="translate(117.5956,56.3016)"><path d="M 0,0 H 89.298" style="fill:none;stroke:#ff7963;stroke-width:1;stroke-linecap:round;stroke-linejoin:round;stroke-miterlimit:10;stroke-dasharray:none;stroke-opacity:1" id="path44"></path></g><g id="g46" transform="translate(28.3636,84.7475)"><path d="m 0,0 v -13.934 c 0.114,-0.655 0.114,-0.655 0.749,-1.049 l 4.495,-2.397 h -15.732 l 4.495,2.397 c 0.49,0.343 0.749,0.599 0.749,1.049 v 29.217 c 0,0.449 -0.257,0.704 -0.749,1.049 l -4.495,2.397 v 0.15 H 5.244 v -0.15 L 0.749,16.332 C 0.013,16.012 0,15.582 0,15.283 V 1.049 Z" style="fill:#ff7963;fill-opacity:1;fill-rule:nonzero;stroke:none" id="path48"></path></g><g id="g50" transform="translate(44.0958,84.7475)"><path d="m 0,0 -0.06,14.725 c 0,1.161 -0.072,1.388 -1.219,1.93 l -3.965,2.074 v 0.15 h 15.732 v -0.15 c 0,0 -4.09,-1.903 -4.915,-2.489 -0.405,-0.287 -0.378,-0.933 -0.36,-1.484 l 0.031,-28.84 c 0,-0.15 -0.051,-0.479 0.605,-0.84 l 4.639,-2.456 H -5.244 l 4.234,2.258 c 0.81,0.399 1.01,0.738 1.01,1.188 z" style="fill:#ff7963;fill-opacity:1;fill-rule:nonzero;stroke:none" id="path52"></path></g><g id="g54" transform="translate(36.1217,81.9879)"><path d="m 0,0 c -2.803,-0.038 -5.529,2.197 -6.266,4.035 -0.657,1.639 -0.254,1.618 -0.254,1.618 0,0 1.546,-2.143 6.57,-2.295 H 0.114 C 5.138,3.51 6.59,5.646 6.59,5.646 c 0,0 0.402,0.02 -0.254,-1.618 C 5.599,2.189 2.96,-0.005 0.088,0 Z" style="fill:#ff7963;fill-opacity:1;fill-rule:nonzero;stroke:none" id="path56"></path></g><g id="g58" transform="translate(67.7974,31.1539)"><path d="M 0,0 H -1.654 V 12.757 H -6.16 v 1.47 H 4.505 v -1.47 H 0 Z" style="fill:#ff7963;fill-opacity:1;fill-rule:nonzero;stroke:none" id="path60"></path></g><g id="g62" transform="translate(82.6938,37.1676)"><path d="M 0,0 -1.654,4.408 C -1.868,4.966 -2.089,5.65 -2.316,6.461 -2.458,5.839 -2.663,5.154 -2.929,4.408 L -4.603,0 Z m 2.287,-6.014 -1.771,4.525 h -5.703 l -1.751,-4.525 h -1.674 l 5.625,14.285 h 1.391 L 4,-6.014 Z" style="fill:#ff7963;fill-opacity:1;fill-rule:nonzero;stroke:none" id="path64"></path></g><g id="g66" transform="translate(101.3564,31.1539)"><path d="m 0,0 h -1.888 l -7.775,11.94 h -0.078 c 0.104,-1.401 0.156,-2.686 0.156,-3.854 V 0 h -1.528 v 14.227 h 1.868 L -1.489,2.335 h 0.078 c -0.013,0.176 -0.043,0.738 -0.088,1.689 -0.045,0.95 -0.062,1.63 -0.048,2.039 v 8.164 H 0 Z" style="fill:#ff7963;fill-opacity:1;fill-rule:nonzero;stroke:none" id="path68"></path></g><g id="g70" transform="translate(116.4673,38.3453)"><path d="m 0,0 c 0,1.855 -0.466,3.253 -1.396,4.194 -0.932,0.94 -2.315,1.411 -4.151,1.411 H -7.95 V -5.761 h 2.014 c 1.972,0 3.455,0.485 4.447,1.455 C -0.497,-3.336 0,-1.901 0,0 m 1.751,0.058 c 0,-2.349 -0.637,-4.144 -1.912,-5.386 -1.275,-1.242 -3.109,-1.863 -5.503,-1.863 h -3.94 V 7.035 h 4.359 c 2.212,0 3.931,-0.613 5.157,-1.839 C 1.138,3.97 1.751,2.257 1.751,0.058" style="fill:#ff7963;fill-opacity:1;fill-rule:nonzero;stroke:none" id="path72"></path></g><g id="g74" transform="translate(131.1108,45.3805)"><path d="M 0,0 H 1.781 L -3.348,-14.227 H -4.982 L -10.082,0 h 1.752 l 3.269,-9.206 c 0.377,-1.057 0.675,-2.085 0.896,-3.084 0.233,1.051 0.539,2.099 0.915,3.143 z" style="fill:#ff7963;fill-opacity:1;fill-rule:nonzero;stroke:none" id="path76"></path></g><g id="g78" transform="translate(141.9009,46.5777)"><path d="M 0,0 C 0,0.363 -0.107,0.644 -0.321,0.841 -0.535,1.04 -0.808,1.138 -1.139,1.138 -1.469,1.138 -1.742,1.04 -1.956,0.841 -2.17,0.644 -2.277,0.363 -2.277,0 c 0,-0.364 0.097,-0.644 0.292,-0.842 0.194,-0.198 0.477,-0.297 0.846,-0.297 0.338,0 0.612,0.099 0.823,0.297 C -0.105,-0.644 0,-0.364 0,0 m 1.051,0.019 c 0,-0.636 -0.199,-1.146 -0.598,-1.532 -0.399,-0.386 -0.93,-0.579 -1.592,-0.579 -0.655,0 -1.177,0.189 -1.566,0.569 -0.389,0.379 -0.584,0.887 -0.584,1.523 0,0.636 0.196,1.14 0.589,1.513 0.392,0.373 0.913,0.56 1.561,0.56 0.656,0 1.184,-0.194 1.587,-0.579 C 0.85,1.107 1.051,0.616 1.051,0.019 m 0.146,-9.429 -1.655,4.408 c -0.213,0.558 -0.434,1.242 -0.661,2.053 -0.143,-0.622 -0.347,-1.307 -0.613,-2.053 L -3.406,-9.41 Z m 2.287,-6.014 -1.772,4.525 H -3.99 l -1.751,-4.525 h -1.674 l 5.624,14.285 h 1.392 l 5.595,-14.285 z" style="fill:#ff7963;fill-opacity:1;fill-rule:nonzero;stroke:none" id="path80"></path></g><g id="g82" transform="translate(152.3018,38.4913)"><path d="m 0,0 h 2.267 c 1.168,0 2.024,0.231 2.569,0.695 0.545,0.464 0.818,1.16 0.818,2.088 0,0.941 -0.278,1.618 -0.832,2.033 C 4.267,5.232 3.376,5.439 2.15,5.439 H 0 Z M 0,-1.421 V -7.337 H -1.654 V 6.889 h 3.902 c 1.745,0 3.034,-0.334 3.868,-1.002 0.833,-0.668 1.25,-1.674 1.25,-3.016 0,-1.882 -0.953,-3.153 -2.861,-3.815 L 8.369,-7.337 H 6.413 l -3.445,5.916 z" style="fill:#ff7963;fill-opacity:1;fill-rule:nonzero;stroke:none" id="path84"></path></g><g id="g86" transform="translate(174.166,38.3453)"><path d="m 0,0 c 0,1.855 -0.466,3.253 -1.396,4.194 -0.932,0.94 -2.315,1.411 -4.151,1.411 H -7.95 V -5.761 h 2.014 c 1.972,0 3.455,0.485 4.447,1.455 C -0.497,-3.336 0,-1.901 0,0 m 1.751,0.058 c 0,-2.349 -0.637,-4.144 -1.912,-5.386 -1.275,-1.242 -3.109,-1.863 -5.503,-1.863 h -3.94 V 7.035 h 4.359 c 2.212,0 3.931,-0.613 5.157,-1.839 C 1.138,3.97 1.751,2.257 1.751,0.058" style="fill:#ff7963;fill-opacity:1;fill-rule:nonzero;stroke:none" id="path88"></path></g></g></g></g></svg> 